<?xml version="1.0"?><svg version="1.2" baseProfile="tiny-ps" viewBox="0 0 300 300" xmlns="http://www.w3.org/2000/svg" xmlns:xlink="http://www.w3.org/1999/xlink"><title>Pure Land Tea</title><g><g fill="#fff" transform="matrix(.1 0 0 -.1 0 300)"><path d="M1300 2983c-139-16-320-73-465-146-412-205-698-575-797-1030l-22-102v-200l-1-200 19-85c10-47 31-128 48-180l30-95 53-108c30-59 80-144 111-190l57-82 116-115 116-115 90-61c173-118 346-191 555-235l105-22h175l175-1 90 17c458 89 825 352 1052 757 50 88 101 220 132 342l29 113 12 119 13 120-7 95c-4 53-13 137-22 186l-15 90-39 116c-176 531-617 908-1169 1003l-95 16-155-2c-86 0-172-3-191-5z"/></g><g fill="#dadad9" transform="matrix(.1 0 0 -.1 0 300)"><path d="M1300 2983c-139-16-320-73-465-146-412-205-698-575-797-1030l-22-102v-200l-1-200 19-85c10-47 31-128 48-180l30-95 53-108c30-59 80-144 111-190l57-82 116-115 116-115 90-61c173-118 346-191 555-235l105-22h175l175-1 90 17c458 89 825 352 1052 757 50 88 101 220 132 342l29 113 12 119 13 120-7 95c-4 53-13 137-22 186l-15 90-39 116c-176 531-617 908-1169 1003l-95 16-155-2c-86 0-172-3-191-5zm113-1225 52-53 37-70 37-70 20-75 21-75 11-113 10-112-11-175-11-174 7-26 6-25h-13c-44 0-230 112-282 169l-34 38-18 47-18 46 6 54 5 55 37 88c21 48 51 122 68 163l30 75 5 90 4 90-20 53-20 52h10c5 0 33-24 61-52zm618-706-30-130-45-115c-61-157-135-303-206-406-75-109-190-228-190-196 0 3 17 40 39 83 21 42 53 116 69 164l31 87 25 128c27 145 43 189 100 288l41 70 95 95 94 95 4-16c2-10-10-75-27-147zm-896-122c32-47 103-102 205-160 41-24 96-58 122-77l47-34 20-42 21-43v-40c-1-64-18-124-62-212-23-46-45-85-49-87-3-3-18 12-31 33-14 20-58 75-97 122-128 150-213 298-246 425l-15 59v59c0 32 5 79 12 104l11 46 18-57c9-32 29-75 44-96z"/></g><g fill="#a1a1a0" transform="matrix(.1 0 0 -.1 0 300)"><path d="M1300 2983c-139-16-320-73-465-146-412-205-698-575-797-1030l-22-102v-200l-1-200 19-85c10-47 31-128 48-180l30-95 53-108c30-59 80-144 111-190l57-82 116-115 116-115 90-61c173-118 346-191 555-235l105-22h175l175-1 90 17c458 89 825 352 1052 757 50 88 101 220 132 342l29 113 12 119 13 120-7 95c-4 53-13 137-22 186l-15 90-39 116c-176 531-617 908-1169 1003l-95 16-155-2c-86 0-172-3-191-5zm138-1247 41-44 29-59c39-77 69-178 83-283l11-85-7-242c-4-134-10-243-13-243-13 0-190 94-222 118-51 38-89 80-111 123l-19 38v126l46 110c25 61 57 139 71 175l25 65 5 75 5 75-21 62c-12 34-21 65-21 68 0 12 56-34 98-79zm632-529c0-1-13-62-30-135l-30-132-36-98c-51-139-146-333-208-426-82-123-195-241-212-223-3 3 15 45 39 93 64 128 93 214 126 381l30 148 40 80c22 44 62 110 90 147l51 68 61 50c51 42 79 59 79 47zm-964-212 18-50 55-55 56-55 116-69 117-68 32-33 33-34 13-50 13-50-14-67-14-66-37-74c-20-40-42-78-49-84l-13-11-23 33c-13 18-59 75-102 127-134 158-220 310-247 432l-13 56 5 89c2 49 8 96 13 104l9 14 7-20c4-10 15-41 25-69z"/></g><g fill="#646363" transform="matrix(.1 0 0 -.1 0 300)"><path d="M1300 2983c-139-16-320-73-465-146-412-205-698-575-797-1030l-22-102v-200l-1-200 19-85c10-47 31-128 48-180l30-95 53-108c30-59 80-144 111-190l57-82 116-115 116-115 90-61c173-118 346-191 555-235l105-22h175l175-1 90 17c458 89 825 352 1052 757 50 88 101 220 132 342l29 113 12 119 13 120-7 95c-4 53-13 137-22 186l-15 90-39 116c-176 531-617 908-1169 1003l-95 16-155-2c-86 0-172-3-191-5zm92-1196 43-32 42-62c51-76 80-151 103-268l19-90 3-100c1-55-2-180-6-277l-9-178h-9c-5 0-55 23-110 52l-101 51-58 57-57 56-17 59-17 58 11 55 11 55 54 126c29 69 60 144 67 166l13 40v80l-1 80-21 53-22 52h9c5 0 29-15 53-33zm653-710-27-122-40-110c-92-251-203-447-331-582l-70-73h-13c-22 0-18 13 35 118 59 118 93 221 119 367 11 61 29 134 41 164 46 122 147 258 256 344l49 39 4-11c2-7-8-67-23-134zm-955-26c0-10 14-46 31-80l31-62 50-39c27-22 93-65 146-96 53-32 111-68 127-82 39-32 72-87 80-131l6-36-11-55-10-55-39-80c-21-44-45-88-53-98l-14-19-26 39c-14 21-58 76-97 123-96 112-176 233-217 327l-33 76-12 70-11 70 6 53c3 29 11 65 16 79l10 26 10-6c5-3 10-14 10-24z"/></g><g fill="#313130" transform="matrix(.1 0 0 -.1 0 300)"><path d="M1300 2983c-139-16-320-73-465-146-412-205-698-575-797-1030l-22-102v-200l-1-200 19-85c10-47 31-128 48-180l30-95 53-108c30-59 80-144 111-190l57-82 116-115 116-115 90-61c173-118 346-191 555-235l105-22h175l175-1 90 17c458 89 825 352 1052 757 50 88 101 220 132 342l29 113 12 119 13 120-7 95c-4 53-13 137-22 186l-15 90-39 116c-176 531-617 908-1169 1003l-95 16-155-2c-86 0-172-3-191-5zm141-1241 48-53 30-62c16-34 39-96 50-137l21-75 10-118 10-118-10-169-10-170 6-25 6-25-17-6-17-7-96 49-97 48-66 66-65 65-14 48-13 47 6 50 6 50 37 88c20 48 52 125 70 172l33 85 1 82v83l-20 52c-11 29-20 57-20 61 0 17 64-30 111-81zm625-569c-11-87-63-276-101-373-93-236-204-425-319-545l-61-65h-18c-9 0-17 4-17 9 0 4 22 55 49 112 62 132 86 205 112 343 35 190 63 256 167 395l56 73 60 49c33 27 65 49 70 49h9l-7-47zm-962-155 17-57 48-53 49-53 117-70c64-38 132-83 152-99l36-30 18-40 19-41v-40c0-81-53-227-107-294l-19-24-36 49c-19 27-65 84-101 127-91 106-142 183-192 291l-43 91-13 63-12 62 6 68c2 37 10 80 16 96l12 29 8-9c4-5 15-35 25-66z"/></g><g fill="#060401" transform="matrix(.1 0 0 -.1 0 300)"><path d="M1300 2983c-139-16-320-73-465-146-412-205-698-575-797-1030l-22-102v-200l-1-200 19-85c10-47 31-128 48-180l30-95 53-108c30-59 80-144 111-190l57-82 116-115 116-115 90-61c173-118 346-191 555-235l105-22h175l175-1 90 17c458 89 825 352 1052 757 50 88 101 220 132 342l29 113 12 119 13 120-7 95c-4 53-13 137-22 186l-15 90-39 116c-176 531-617 908-1169 1003l-95 16-155-2c-86 0-172-3-191-5zm87-1185c106-76 179-227 209-428l16-105-7-243-7-242-9-6-9-5-93 45-92 46-60 47-59 48-29 55-29 55 5 70 4 70 61 145c68 163 82 210 81 290v55l-19 55c-20 57-24 80-14 80 3 0 26-15 51-32zm693-583c0-3-13-65-30-139-71-319-227-641-398-819l-65-67h-24c-12 0-23 2-23 5s20 45 44 93c58 116 100 237 121 352 39 213 92 331 210 459 70 77 165 144 165 116zm-981-174 13-50 31-47 31-47 57-42c32-24 93-62 135-85s97-61 122-83l45-42 13-32 14-32V469l-21-62c-11-34-37-90-56-124l-35-63h-11c-7 0-22 15-33 33-12 18-49 64-82 103-32 38-85 105-117 149l-58 80-42 90c-24 50-48 111-54 137l-11 47v156l11 38 10 37h25l13-49z"/></g></g></svg>